HIERARCHY
ROOT Hips
{
  OFFSET 55.4898 83.7517 3.86518
  CHANNELS 6 Xposition Yposition Zposition Zrotation Xrotation Yrotation
  JOINT spine
  {
    OFFSET 0 5.95438 0.342407
    CHANNELS 3 Zrotation Xrotation Yrotation
    JOINT spine1
    {
      OFFSET 0 8.85602 0
      CHANNELS 3 Zrotation Xrotation Yrotation
      JOINT spine2
      {
        OFFSET 0 8.48567 0
        CHANNELS 3 Zrotation Xrotation Yrotation
        JOINT Neck
        {
          OFFSET 0 21.7863 1.0387
          CHANNELS 3 Zrotation Xrotation Yrotation
          JOINT Head
          {
            OFFSET 0 6.5822 0
            CHANNELS 3 Zrotation Xrotation Yrotation
            End Site
            {
              OFFSET 0 15.9326 -5.25436
            }
          }
        }
        JOINT RightShoulder
        {
          OFFSET -3.57307 9.16386 -0.497525
          CHANNELS 3 Zrotation Xrotation Yrotation
          JOINT RightArm
          {
            OFFSET 0 12.0192 0
            CHANNELS 3 Zrotation Xrotation Yrotation
            JOINT RightArmRoll
            {
              OFFSET 0 6.06755 0
              CHANNELS 3 Zrotation Xrotation Yrotation
              JOINT RightForeArm
              {
                OFFSET 0 17.6726 0
                CHANNELS 3 Zrotation Xrotation Yrotation
                JOINT RightForeArmRoll
                {
                  OFFSET 0 6.80873 0
                  CHANNELS 3 Zrotation Xrotation Yrotation
                  JOINT RightHand
                  {
                    OFFSET 0 13.6636 0
                    CHANNELS 3 Zrotation Xrotation Yrotation
                    End Site
                    {
                      OFFSET 0 0 0
                    }
                  }
                }
              }
            }
          }
        }
        JOINT LeftShoulder
        {
          OFFSET 3.57307 9.16386 -0.497525
          CHANNELS 3 Zrotation Xrotation Yrotation
          JOINT LeftArm
          {
            OFFSET 0 12.0192 0
            CHANNELS 3 Zrotation Xrotation Yrotation
            JOINT LeftArmRoll
            {
              OFFSET 0 6.06755 0
              CHANNELS 3 Zrotation Xrotation Yrotation
              JOINT LeftForeArm
              {
                OFFSET 0 17.6726 0
                CHANNELS 3 Zrotation Xrotation Yrotation
                JOINT LeftForeArmRoll
                {
                  OFFSET 0 6.80873 0
                  CHANNELS 3 Zrotation Xrotation Yrotation
                  JOINT LeftHand
                  {
                    OFFSET 0 13.6636 0
                    CHANNELS 3 Zrotation Xrotation Yrotation
                    End Site
                    {
                      OFFSET 0 0 0
                    }
                  }
                }
              }
            }
          }
        }
      }
    }
  }
  JOINT RightUpLeg
  {
    OFFSET -5.27774 -0.967797 -0.811858
    CHANNELS 3 Zrotation Xrotation Yrotation
    JOINT RightUpLegRoll
    {
      OFFSET 0 16.0214 0
      CHANNELS 3 Zrotation Xrotation Yrotation
      JOINT RightLeg
      {
        OFFSET 0 -19.8401 0
        CHANNELS 3 Zrotation Xrotation Yrotation
        JOINT RightLegRoll
        {
          OFFSET 0 19.905 0
          CHANNELS 3 Zrotation Xrotation Yrotation
          JOINT RightFoot
          {
            OFFSET 0 16.5675 0
            CHANNELS 3 Zrotation Xrotation Yrotation
            JOINT RightToeBase
            {
              OFFSET 0 13.8496 0
              CHANNELS 3 Zrotation Xrotation Yrotation
              End Site
              {
                OFFSET 0.00587034 6.70727 -0.773117
              }
            }
          }
        }
      }
    }
  }
  JOINT LeftUpLeg
  {
    OFFSET 5.27774 -0.967797 -0.811858
    CHANNELS 3 Zrotation Xrotation Yrotation
    JOINT LeftUpLegRoll
    {
      OFFSET 0 16.0215 0
      CHANNELS 3 Zrotation Xrotation Yrotation
      JOINT LeftLeg
      {
        OFFSET 0 19.84 0
        CHANNELS 3 Zrotation Xrotation Yrotation
        JOINT LeftLegRoll
        {
          OFFSET 0 20.089 0
          CHANNELS 3 Zrotation Xrotation Yrotation
          JOINT LeftFoot
          {
            OFFSET 0 16.3835 0
            CHANNELS 3 Zrotation Xrotation Yrotation
            JOINT LeftToeBase
            {
              OFFSET 0 13.8496 0
              CHANNELS 3 Zrotation Xrotation Yrotation
              End Site
              {
                OFFSET -0.0263083 6.70727 -0.773117
              }
            }
          }
        }
      }
    }
  }
}
MOTION
Frames: 13
Frame Time: 0.00208333
54.1459 81.5361 1.97918 0.58017 5.31585 8.87638 -0.0186979 -2.55021 -0.0834562 -0.040247 -1.09755 -0.165588 -0.0382703 0.547513 -0.164929 -30.5834 -3.2342 -5.04916 31.6023 2.86464 -9.61215 68.2492 -15.747 -9.59648 -63.753 -3.49701 118.581 9.93923e-016 6.90777e-015 -9.54166e-015 -3.63899 -0.401099 -2.0068 -2.97522e-006 -1.442e-006 -3.01178 8.03008 -4.95139 0.697633 -35.2634 -11.2052 7.30796 6.42875 16.1335 -85.8685 -3.97569e-016 -7.35503e-015 -3.18055e-015 4.22 33.9626 0.962243 -5.67223e-006 6.47088e-007 3 -8.0301 -4.95136 -0.697621 159.239 13.5063 7.36441 180 7.01419e-015 178.465 -172.71 25.5435 177.059 3.03195e-006 -6.59395e-007 0.244178 -18.9551 66.9298 18.6402 8.17714 26.0348 -2.69825 -165.284 16.7204 -2.413 4.54188e-006 -4.6773e-006 -1.49612 6.55894 -26.6378 2.3715 1.27419e-006 4.57056e-006 -0.284749 19.0836 66.8682 -18.5753 -8.16624 25.7684 2.9337 
54.3177 81.8352 1.98456 0.683467 5.13208 8.7096 -0.0482753 -2.54316 -0.084621 -0.099325 -1.08341 -0.165325 -0.0973536 0.561656 -0.163678 -30.21 -2.99812 -4.87881 31.3445 2.89121 -9.45105 69.1951 -15.0091 -9.05984 -63.7129 -3.18486 118.678 7.95139e-016 2.84262e-014 -0 -3.63905 -0.206021 -2.00036 -2.97522e-006 -1.442e-006 -3.01169 8.03008 -4.95139 0.697633 -35.2491 -10.9963 7.10378 5.64249 16.1644 -85.3552 -7.95139e-016 3.97569e-016 -6.36111e-015 4.22756 34.2293 0.950187 -5.67223e-006 6.47088e-007 3 -8.0301 -4.95136 -0.697621 159.21 13.116 7.43525 180 7.01419e-015 178.464 -172.934 24.9528 177.173 3.03195e-006 -6.59391e-007 0.152572 -18.7785 66.5982 18.3892 8.16363 25.7108 -3.01868 -165.377 16.0625 -2.43466 4.54188e-006 -4.6773e-006 -1.49058 6.29997 -25.8802 2.24462 1.27418e-006 4.57049e-006 -0.17827 18.8525 66.457 -18.2695 -8.15554 25.5511 3.1591 
54.2267 82.1627 2.15736 0.775997 4.94562 8.55911 -0.0760146 -2.53358 -0.0852395 -0.154707 -1.06423 -0.164094 -0.152753 0.580833 -0.161522 -29.8296 -2.77016 -4.72386 31.0806 2.91731 -9.29834 69.9514 -14.3418 -8.57984 -63.5215 -2.80778 118.631 -1.39149e-015 -9.74045e-015 -0 -3.63912 -0.0749064 -1.99605 -2.97522e-006 -1.442e-006 -3.01163 8.03008 -4.95139 0.697633 -35.2358 -10.7858 6.89742 4.82659 16.1861 -84.8325 -4.77083e-015 -2.80286e-014 -9.54166e-015 4.23652 34.5457 0.935996 -5.67223e-006 6.47088e-007 3 -8.0301 -4.95136 -0.697621 159.206 12.7247 7.4925 180 7.01418e-015 178.462 -173.14 24.3817 177.281 3.03195e-006 -6.59384e-007 0.0703477 -18.6247 66.3017 18.1731 8.14931 25.4401 -3.28476 -165.476 15.4292 -2.44741 4.54188e-006 -4.6773e-006 -1.48531 6.06885 -25.1599 2.12773 1.27418e-006 4.57041e-006 -0.0833407 18.6554 66.0938 -18.0102 -8.14521 25.3703 3.34598 
54.4077 82.4844 2.18621 0.855885 4.75747 8.42719 -0.101518 -2.52149 -0.0852227 -0.205594 -1.04003 -0.161748 -0.203672 0.605037 -0.158325 -29.4442 -2.55165 -4.58606 30.8128 2.94328 -9.15541 70.5031 -13.7593 -8.16182 -63.1651 -2.36942 118.422 1.39149e-015 1.98785e-015 -6.36111e-015 -3.63917 -0.0269467 -1.99448 -2.97522e-006 -1.442e-006 -3.01161 8.03008 -4.95139 0.697633 -35.2248 -10.5738 6.68882 3.9813 16.1989 -84.3011 1.19271e-015 4.77083e-015 -1.90833e-014 4.24698 34.9134 0.919576 -5.67223e-006 6.47088e-007 3 -8.0301 -4.95136 -0.697621 159.23 12.3335 7.53412 180 7.01417e-015 178.46 -173.327 23.8332 177.382 3.03195e-006 -6.59373e-007 -0.00173672 -18.4937 66.044 17.9929 8.13648 25.2326 -3.48773 -165.58 14.8258 -2.45118 4.54188e-006 -4.6773e-006 -1.48031 5.86796 -24.4827 2.02127 1.27419e-006 4.57032e-006 -0.00124466 18.4917 65.785 -17.7984 -8.13648 25.2327 3.48773 
54.3487 82.7814 2.31583 0.927519 4.55924 8.31148 -0.12597 -2.50458 -0.0846466 -0.254356 -1.00618 -0.158331 -0.252479 0.638886 -0.154093 -29.0298 -2.36426 -4.46976 30.5191 2.98858 -9.02374 70.855 -13.2504 -7.80644 -62.6762 -1.81021 118.061 1.03368e-014 3.73715e-014 -0 -3.63958 -0.104562 -1.99739 -2.97522e-006 -1.442e-006 -3.01163 8.03008 -4.95139 0.697633 -35.1958 -10.3644 6.4799 3.09355 16.2033 -83.7534 -7.95139e-016 -3.37934e-015 -9.54166e-015 4.25957 35.3359 0.900851 -5.67223e-006 6.47088e-007 3 -8.0301 -4.95136 -0.697621 159.275 11.93 7.56381 180 7.01417e-015 178.457 -173.499 23.2972 177.478 3.03195e-006 -6.59363e-007 -0.0623083 -18.3813 65.8278 17.8465 8.12609 25.0809 -3.63564 -165.692 14.2377 -2.44351 4.54188e-006 -4.6773e-006 -1.47579 5.69523 -23.8393 1.92469 1.27419e-006 4.57023e-006 0.0670852 18.357 65.5331 -17.6311 -8.12968 25.1327 3.59047 
54.3883 83.082 2.36405 0.996383 4.34367 8.20758 -0.150702 -2.48114 -0.0836697 -0.303654 -0.959287 -0.154051 -0.301835 0.685772 -0.148989 -28.5662 -2.22238 -4.37611 30.1807 3.06714 -8.90283 71.0327 -12.7918 -7.5063 -62.0878 -1.09516 117.567 -3.97569e-016 5.56597e-015 -3.18055e-015 -3.64069 -0.316685 -2.0053 -2.97522e-006 -1.442e-006 -3.01169 8.03008 -4.95139 0.697633 -35.1331 -10.1604 6.27215 2.15381 16.1976 -83.1824 4.77083e-015 1.17283e-014 -2.54444e-014 4.27479 35.8139 0.87981 -5.67223e-006 6.47088e-007 3 -8.0301 -4.95136 -0.697621 159.335 11.5041 7.58673 180 7.01415e-015 178.453 -173.659 22.763 177.569 3.03195e-006 -6.59354e-007 -0.111237 -18.2816 65.6507 17.7285 8.11782 24.9681 -3.7452 -165.814 13.6482 -2.42281 4.54188e-006 -4.6773e-006 -1.47189 5.54557 -23.2161 1.83664 1.27419e-006 4.57016e-006 0.122449 18.2441 65.3328 -17.5005 -8.12438 25.0584 3.66663 
54.3901 83.3968 2.47322 1.06231 4.11344 8.11478 -0.175532 -2.4521 -0.082327 -0.353132 -0.901202 -0.148997 -0.351382 0.743853 -0.143109 -28.061 -2.11645 -4.30199 29.8048 3.17095 -8.79111 71.0517 -12.379 -7.25486 -61.385 -0.268233 116.937 -3.18055e-015 5.96354e-015 -9.54166e-015 -3.64246 -0.632272 -2.01711 -2.97522e-006 -1.442e-006 -3.01177 8.03008 -4.95139 0.697633 -35.0441 -9.95999 6.06479 1.16746 16.1787 -82.5905 3.97569e-016 -6.16232e-015 -2.22639e-014 4.29255 36.345 0.856439 -5.67223e-006 6.47088e-007 3 -8.0301 -4.95136 -0.697621 159.408 11.0596 7.60306 180 7.01414e-015 178.448 -173.808 22.2324 177.657 3.03195e-006 -6.59348e-007 -0.149627 -18.1927 65.5094 17.6353 8.11185 24.8905 -3.82054 -165.944 13.0594 -2.39026 4.54188e-006 -4.6773e-006 -1.46854 5.41693 -22.6125 1.75635 1.27419e-006 4.57011e-006 0.166163 18.1492 65.1789 -17.4016 -8.1206 25.0073 3.71902 
54.3969 83.699 2.53036 1.12514 3.87121 8.03237 -0.200278 -2.41838 -0.0806532 -0.402434 -0.833762 -0.143263 -0.400765 0.811288 -0.136551 -27.5218 -2.03688 -4.24434 29.3985 3.29199 -8.68699 70.9269 -12.0076 -7.04576 -60.5529 0.625463 116.171 -2.78299e-015 4.17448e-015 -3.49861e-014 -3.6448 -1.02028 -2.03172 -2.97522e-006 -1.442e-006 -3.01188 8.03008 -4.95139 0.697633 -34.9358 -9.76158 5.85711 0.140067 16.1437 -81.9801 3.97569e-016 -3.37934e-015 3.18055e-015 4.31277 36.9263 0.830715 -5.67223e-006 6.47088e-007 3 -8.0301 -4.95136 -0.697621 159.493 10.6006 7.61298 180 7.01412e-015 178.443 -173.947 21.7073 177.741 3.03195e-006 -6.59344e-007 -0.178584 -18.1131 65.4004 17.564 8.10816 24.8439 -3.8657 -166.082 12.4732 -2.34703 4.54188e-006 -4.6773e-006 -1.46567 5.30735 -22.0281 1.68313 1.27419e-006 4.57008e-006 0.199541 18.0696 65.0662 -17.3298 -8.11829 24.9766 3.75044 
54.4033 84.0025 2.64525 1.18476 3.61966 7.9596 -0.22476 -2.3809 -0.0786832 -0.451202 -0.75881 -0.136939 -0.449624 0.886235 -0.129411 -26.9563 -1.97407 -4.20009 28.9691 3.42224 -8.58888 70.6729 -11.6728 -6.87281 -59.577 1.54099 115.268 -8.74653e-015 -2.5842e-015 -2.54444e-014 -3.64762 -1.44966 -2.04799 -2.97522e-006 -1.442e-006 -3.012 8.03008 -4.95139 0.697633 -34.8156 -9.56344 5.64836 -0.922732 16.0902 -81.3539 -1.19271e-015 1.64991e-014 -3.18055e-015 4.3354 37.5554 0.802603 -5.67223e-006 6.47088e-007 3 -8.0301 -4.95136 -0.697621 159.591 10.1312 7.61665 180 7.0141e-015 178.436 -174.075 21.1899 177.82 3.03195e-006 -6.59343e-007 -0.199215 -18.0417 65.3202 17.5117 8.10659 24.8243 -3.88467 -166.226 11.8916 -2.29423 4.54188e-006 -4.6773e-006 -1.46319 5.21486 -21.4622 1.61629 1.27419e-006 4.57006e-006 0.223898 18.0028 64.9895 -17.281 -8.11731 24.9637 3.76364 
54.5493 84.287 2.58085 1.24105 3.36146 7.89574 -0.248795 -2.34059 -0.0764519 -0.499081 -0.678186 -0.130116 -0.497601 0.966852 -0.121788 -26.3726 -1.91842 -4.16619 28.5238 3.55366 -8.49517 70.3038 -11.37 -6.72992 -58.4447 2.43497 114.235 2.38542e-015 3.26007e-014 -9.54166e-015 -3.65076 -1.88939 -2.06478 -2.97522e-006 -1.442e-006 -3.01212 8.03008 -4.95139 0.697633 -34.6905 -9.36387 5.43783 -2.01521 16.0158 -80.7151 -1.19271e-015 -7.95139e-016 -3.18055e-015 4.36038 38.2296 0.772059 -5.67223e-006 6.47088e-007 3 -8.0301 -4.95136 -0.697621 159.7 9.65515 7.61421 180 7.01407e-015 178.43 -174.194 20.6818 177.896 3.03195e-006 -6.59343e-007 -0.212623 -17.9773 65.2652 17.4757 8.10686 24.8277 -3.8814 -166.375 11.3167 -2.23299 4.54188e-006 -4.6773e-006 -1.46103 5.13758 -20.9145 1.55515 1.27419e-006 4.57006e-006 0.24055 17.9465 64.9433 -17.2515 -8.11748 24.9659 3.76136 
54.5472 84.6 2.69286 1.29388 3.09929 7.84005 -0.272203 -2.29836 -0.0739939 -0.54571 -0.593734 -0.122885 -0.544337 1.0513 -0.113778 -25.7784 -1.86033 -4.13958 28.07 3.67821 -8.40426 69.8334 -11.0942 -6.61108 -57.1461 3.26707 113.081 -1.19271e-014 -1.76918e-014 -2.54444e-014 -3.65399 -2.30841 -2.0809 -2.97522e-006 -1.442e-006 -3.01223 8.03008 -4.95139 0.697633 -34.5678 -9.16117 5.22481 -3.13159 15.9188 -80.0671 -1.59028e-015 2.24627e-014 6.36111e-015 4.38769 38.9463 0.739027 -5.67223e-006 6.47088e-007 3 -8.0301 -4.95136 -0.697621 159.819 9.17664 7.60576 180 7.01405e-015 178.423 -174.304 20.1851 177.968 3.03195e-006 -6.59344e-007 -0.219914 -17.9191 65.232 17.4537 8.10865 24.85 -3.85981 -166.53 10.7505 -2.1644 4.54188e-006 -4.6773e-006 -1.45912 5.07366 -20.3842 1.4991 1.27419e-006 4.57007e-006 0.250811 17.8988 64.9225 -17.2378 -8.11859 24.9806 3.74634 
54.3365 84.8997 2.80694 1.34315 2.83583 7.79177 -0.294802 -2.25514 -0.0713443 -0.590732 -0.507295 -0.115338 -0.589471 1.13773 -0.105478 -25.1816 -1.7902 -4.11723 27.615 3.78784 -8.31455 69.2753 -10.8408 -6.51038 -55.6747 4.00146 111.822 -2.38542e-015 -5.96354e-015 -1.27222e-014 -3.65703 -2.6757 -2.09514 -2.97522e-006 -1.442e-006 -3.01233 8.03008 -4.95139 0.697633 -34.4546 -8.95363 5.00858 -4.26603 15.7977 -79.4134 -1.59028e-015 -4.27387e-015 9.54166e-015 4.41729 39.7028 0.703435 -5.67223e-006 6.47088e-007 3 -8.0301 -4.95136 -0.697621 159.949 8.69962 7.59142 180 7.01403e-015 178.416 -174.404 19.7016 178.037 3.03195e-006 -6.59347e-007 -0.222194 -17.8664 65.2169 17.4433 8.11159 24.8871 -3.82382 -166.688 10.1949 -2.08954 4.54188e-006 -4.6773e-006 -1.45738 5.02129 -19.8708 1.4475 1.27419e-006 4.57009e-006 0.255996 17.858 64.9216 -17.2365 -8.12044 25.005 3.7213 
54.4262 85.1864 2.88039 1.38875 2.57373 7.75015 -0.316409 -2.21184 -0.0685377 -0.633783 -0.420711 -0.107566 -0.63264 1.22431 -0.0969849 -24.5904 -1.69841 -4.09609 27.1662 3.8745 -8.2244 68.643 -10.6047 -6.42195 -54.0274 4.6081 110.476 -1.11319e-014 8.54774e-015 -3.18055e-014 -3.65951 -2.96022 -2.10624 -2.97522e-006 -1.442e-006 -3.01241 8.03008 -4.95139 0.697633 -34.3578 -8.73953 4.78845 -5.41271 15.6515 -78.7578 1.59028e-015 8.24956e-015 -3.18055e-015 4.44917 40.4966 0.665201 -5.67223e-006 6.47088e-007 3 -8.0301 -4.95136 -0.697621 160.088 8.22811 7.57125 180 7.01401e-015 178.409 -174.496 19.2333 178.101 3.03195e-006 -6.5935e-007 -0.220568 -17.8186 65.2165 17.4423 8.1153 24.9351 -3.77731 -166.849 9.65208 -2.00946 4.54188e-006 -4.6773e-006 -1.45573 4.97867 -19.3739 1.39976 1.27419e-006 4.57012e-006 0.257421 17.8222 64.9354 -17.2444 -8.12279 25.0366 3.68896 
